<svg width="60" height="60" viewBox="0 0 60 60" xmlns="http://www.w3.org/2000/svg"><title>logo-web</title><g fill="#FFF" fill-rule="evenodd"><path d="M27.558 10.67l-3.232 14.262H20.77l1.435-6.324H16.89l-1.434 6.324h-3.535l3.252-14.263h3.535l-1.17 5.191h5.292l1.171-5.19zM36.202 10.649h3.575l-1.939 8.708a4.91 4.91 0 0 0-.141 1.07c0 1.494 1.475 1.778 2.121 1.778 1.819 0 2.323-1.354 2.728-2.748l2.06-8.808h3.556l-2.102 9.374c-.221.949-.525 2.242-1.393 3.252-.909 1.05-2.647 1.96-4.97 1.96-2.404 0-5.576-.97-5.576-4.403 0-.748.162-1.496.303-2.223l1.778-7.96zM41.98 37.66l-3.253 5.857h3.636l-.383-5.858zm2.687-2.99l1.514 14.261h-3.474l-.182-2.828h-5.252l-1.576 2.828H31.96l8.708-14.261h4zM13.041 48.672l3.221-14.228h-1.5l-3.249 14.228zM19.485 48.672l3.22-14.228h-1.498l-3.25 14.228zM25.928 48.672l3.221-14.228h-1.5L24.4 48.672z"/></g></svg>